<svg xmlns="http://www.w3.org/2000/svg" xmlns:xlink="http://www.w3.org/1999/xlink" width="150" zoomAndPan="magnify" viewBox="0 0 112.5 37.5" height="50" preserveAspectRatio="xMidYMid meet" version="1.0"><defs><filter x="0%" y="0%" width="100%" height="100%" id="1316211440"><feColorMatrix values="0 0 0 0 1 0 0 0 0 1 0 0 0 0 1 0 0 0 1 0" color-interpolation-filters="sRGB"/></filter><g/><clipPath id="e6a9f7e233"><path d="M 2.34375 2.945312 L 21 2.945312 L 21 21 L 2.34375 21 Z M 2.34375 2.945312 " clip-rule="nonzero"/></clipPath><mask id="d0b047fe17"><g filter="url(#1316211440)"><rect x="-11.25" width="135" fill="#000000" y="-3.75" height="45" fill-opacity="0.8"/></g></mask><clipPath id="81b9349bd3"><path d="M 0.34375 0.945312 L 18 0.945312 L 18 18.605469 L 0.34375 18.605469 Z M 0.34375 0.945312 " clip-rule="nonzero"/></clipPath><clipPath id="b06a69b991"><rect x="0" width="19" y="0" height="19"/></clipPath><clipPath id="673e80defe"><path d="M 2.34375 11 L 23.808594 11 L 23.808594 33.292969 L 2.34375 33.292969 Z M 2.34375 11 " clip-rule="nonzero"/></clipPath><mask id="6cca3d9536"><g filter="url(#1316211440)"><rect x="-11.25" width="135" fill="#000000" y="-3.75" height="45" fill-opacity="0.8"/></g></mask><clipPath id="8ef7fac5c4"><path d="M 0.34375 0.84375 L 21.703125 0.84375 L 21.703125 22.292969 L 0.34375 22.292969 Z M 0.34375 0.84375 " clip-rule="nonzero"/></clipPath><clipPath id="8f8b88c0b5"><rect x="0" width="22" y="0" height="23"/></clipPath><clipPath id="e54aa69e8a"><path d="M 0.414062 2 L 3 2 L 3 6 L 0.414062 6 Z M 0.414062 2 " clip-rule="nonzero"/></clipPath><clipPath id="d875ca49cb"><rect x="0" width="87" y="0" height="7"/></clipPath><clipPath id="77a3a7ef24"><path d="M 0.175781 2 L 11 2 L 11 10 L 0.175781 10 Z M 0.175781 2 " clip-rule="nonzero"/></clipPath><clipPath id="c6edd484df"><rect x="0" width="86" y="0" height="14"/></clipPath></defs><g clip-path="url(#e6a9f7e233)"><g mask="url(#d0b047fe17)"><g transform="matrix(1, 0, 0, 1, 2, 2)"><g clip-path="url(#b06a69b991)"><g clip-path="url(#81b9349bd3)"><path fill="#ffffff" d="M 9.136719 18.535156 C 4.28125 18.535156 0.34375 14.597656 0.34375 9.742188 L 0.34375 0.945312 L 9.136719 0.945312 C 13.996094 0.945312 17.933594 4.882812 17.933594 9.742188 C 17.933594 14.597656 13.996094 18.535156 9.136719 18.535156 Z M 9.136719 18.535156 " fill-opacity="1" fill-rule="nonzero"/></g></g></g></g></g><g clip-path="url(#673e80defe)"><g mask="url(#6cca3d9536)"><g transform="matrix(1, 0, 0, 1, 2, 11)"><g clip-path="url(#8f8b88c0b5)"><g clip-path="url(#8ef7fac5c4)"><path fill="#f6faff" d="M 11.007812 22.300781 C 5.117188 22.300781 0.34375 17.527344 0.34375 11.636719 L 0.34375 0.976562 L 11.007812 0.976562 C 16.894531 0.976562 21.667969 5.75 21.667969 11.636719 C 21.667969 17.527344 16.894531 22.300781 11.007812 22.300781 Z M 11.007812 22.300781 " fill-opacity="1" fill-rule="nonzero"/></g></g></g></g></g><g transform="matrix(1, 0, 0, 1, 24, 27)"><g clip-path="url(#d875ca49cb)"><g clip-path="url(#e54aa69e8a)"><g fill="#f6faff" fill-opacity="1"><g transform="translate(0.661685, 5.352308)"><g><path d="M 2.046875 -0.78125 C 2.046875 -0.601562 2.003906 -0.453125 1.921875 -0.328125 C 1.835938 -0.210938 1.71875 -0.117188 1.5625 -0.046875 C 1.40625 0.015625 1.222656 0.046875 1.015625 0.046875 C 0.898438 0.046875 0.789062 0.0390625 0.6875 0.03125 C 0.59375 0.0195312 0.503906 0.00390625 0.421875 -0.015625 C 0.335938 -0.0351562 0.265625 -0.0625 0.203125 -0.09375 L 0.203125 -0.421875 C 0.304688 -0.378906 0.429688 -0.335938 0.578125 -0.296875 C 0.722656 -0.265625 0.875 -0.25 1.03125 -0.25 C 1.175781 -0.25 1.296875 -0.269531 1.390625 -0.3125 C 1.492188 -0.351562 1.570312 -0.410156 1.625 -0.484375 C 1.675781 -0.554688 1.703125 -0.644531 1.703125 -0.75 C 1.703125 -0.851562 1.679688 -0.9375 1.640625 -1 C 1.597656 -1.0625 1.523438 -1.117188 1.421875 -1.171875 C 1.316406 -1.234375 1.175781 -1.296875 1 -1.359375 C 0.882812 -1.398438 0.773438 -1.445312 0.671875 -1.5 C 0.578125 -1.550781 0.5 -1.609375 0.4375 -1.671875 C 0.375 -1.742188 0.328125 -1.820312 0.296875 -1.90625 C 0.265625 -2 0.25 -2.101562 0.25 -2.21875 C 0.25 -2.375 0.285156 -2.503906 0.359375 -2.609375 C 0.441406 -2.722656 0.550781 -2.8125 0.6875 -2.875 C 0.832031 -2.9375 1 -2.96875 1.1875 -2.96875 C 1.34375 -2.96875 1.484375 -2.953125 1.609375 -2.921875 C 1.742188 -2.890625 1.867188 -2.847656 1.984375 -2.796875 L 1.875 -2.515625 C 1.769531 -2.554688 1.65625 -2.59375 1.53125 -2.625 C 1.414062 -2.65625 1.296875 -2.671875 1.171875 -2.671875 C 1.046875 -2.671875 0.941406 -2.648438 0.859375 -2.609375 C 0.773438 -2.566406 0.707031 -2.515625 0.65625 -2.453125 C 0.613281 -2.390625 0.59375 -2.3125 0.59375 -2.21875 C 0.59375 -2.113281 0.613281 -2.023438 0.65625 -1.953125 C 0.695312 -1.890625 0.765625 -1.832031 0.859375 -1.78125 C 0.953125 -1.726562 1.082031 -1.671875 1.25 -1.609375 C 1.414062 -1.546875 1.554688 -1.476562 1.671875 -1.40625 C 1.796875 -1.34375 1.890625 -1.257812 1.953125 -1.15625 C 2.015625 -1.0625 2.046875 -0.9375 2.046875 -0.78125 Z M 2.046875 -0.78125 "/></g></g></g></g><g fill="#f6faff" fill-opacity="1"><g transform="translate(4.799027, 5.352308)"><g><path d="M 0.40625 0 L 0.40625 -2.921875 L 0.734375 -2.921875 L 0.734375 0 Z M 0.40625 0 "/></g></g></g><g fill="#f6faff" fill-opacity="1"><g transform="translate(7.836813, 5.352308)"><g><path d="M 1.296875 0 L 0.953125 0 L 0.953125 -2.625 L 0.03125 -2.625 L 0.03125 -2.921875 L 2.21875 -2.921875 L 2.21875 -2.625 L 1.296875 -2.625 Z M 1.296875 0 "/></g></g></g><g fill="#f6faff" fill-opacity="1"><g transform="translate(11.984133, 5.352308)"><g><path d="M 2.03125 0 L 0.40625 0 L 0.40625 -2.921875 L 2.03125 -2.921875 L 2.03125 -2.625 L 0.734375 -2.625 L 0.734375 -1.671875 L 1.953125 -1.671875 L 1.953125 -1.375 L 0.734375 -1.375 L 0.734375 -0.296875 L 2.03125 -0.296875 Z M 2.03125 0 "/></g></g></g><g fill="#f6faff" fill-opacity="1"><g transform="translate(16.151408, 5.352308)"><g><path d="M 2.046875 -0.78125 C 2.046875 -0.601562 2.003906 -0.453125 1.921875 -0.328125 C 1.835938 -0.210938 1.71875 -0.117188 1.5625 -0.046875 C 1.40625 0.015625 1.222656 0.046875 1.015625 0.046875 C 0.898438 0.046875 0.789062 0.0390625 0.6875 0.03125 C 0.59375 0.0195312 0.503906 0.00390625 0.421875 -0.015625 C 0.335938 -0.0351562 0.265625 -0.0625 0.203125 -0.09375 L 0.203125 -0.421875 C 0.304688 -0.378906 0.429688 -0.335938 0.578125 -0.296875 C 0.722656 -0.265625 0.875 -0.25 1.03125 -0.25 C 1.175781 -0.25 1.296875 -0.269531 1.390625 -0.3125 C 1.492188 -0.351562 1.570312 -0.410156 1.625 -0.484375 C 1.675781 -0.554688 1.703125 -0.644531 1.703125 -0.75 C 1.703125 -0.851562 1.679688 -0.9375 1.640625 -1 C 1.597656 -1.0625 1.523438 -1.117188 1.421875 -1.171875 C 1.316406 -1.234375 1.175781 -1.296875 1 -1.359375 C 0.882812 -1.398438 0.773438 -1.445312 0.671875 -1.5 C 0.578125 -1.550781 0.5 -1.609375 0.4375 -1.671875 C 0.375 -1.742188 0.328125 -1.820312 0.296875 -1.90625 C 0.265625 -2 0.25 -2.101562 0.25 -2.21875 C 0.25 -2.375 0.285156 -2.503906 0.359375 -2.609375 C 0.441406 -2.722656 0.550781 -2.8125 0.6875 -2.875 C 0.832031 -2.9375 1 -2.96875 1.1875 -2.96875 C 1.34375 -2.96875 1.484375 -2.953125 1.609375 -2.921875 C 1.742188 -2.890625 1.867188 -2.847656 1.984375 -2.796875 L 1.875 -2.515625 C 1.769531 -2.554688 1.65625 -2.59375 1.53125 -2.625 C 1.414062 -2.65625 1.296875 -2.671875 1.171875 -2.671875 C 1.046875 -2.671875 0.941406 -2.648438 0.859375 -2.609375 C 0.773438 -2.566406 0.707031 -2.515625 0.65625 -2.453125 C 0.613281 -2.390625 0.59375 -2.3125 0.59375 -2.21875 C 0.59375 -2.113281 0.613281 -2.023438 0.65625 -1.953125 C 0.695312 -1.890625 0.765625 -1.832031 0.859375 -1.78125 C 0.953125 -1.726562 1.082031 -1.671875 1.25 -1.609375 C 1.414062 -1.546875 1.554688 -1.476562 1.671875 -1.40625 C 1.796875 -1.34375 1.890625 -1.257812 1.953125 -1.15625 C 2.015625 -1.0625 2.046875 -0.9375 2.046875 -0.78125 Z M 2.046875 -0.78125 "/></g></g></g><g fill="#f6faff" fill-opacity="1"><g transform="translate(20.28875, 5.352308)"><g/></g></g><g fill="#f6faff" fill-opacity="1"><g transform="translate(23.246714, 5.352308)"><g><path d="M 2.03125 0 L 0.40625 0 L 0.40625 -2.921875 L 2.03125 -2.921875 L 2.03125 -2.625 L 0.734375 -2.625 L 0.734375 -1.671875 L 1.953125 -1.671875 L 1.953125 -1.375 L 0.734375 -1.375 L 0.734375 -0.296875 L 2.03125 -0.296875 Z M 2.03125 0 "/></g></g></g><g fill="#f6faff" fill-opacity="1"><g transform="translate(27.413989, 5.352308)"><g/></g></g><g fill="#f6faff" fill-opacity="1"><g transform="translate(30.371954, 5.352308)"><g><path d="M 0.40625 0 L 0.40625 -2.921875 L 0.734375 -2.921875 L 0.734375 -0.296875 L 2.03125 -0.296875 L 2.03125 0 Z M 0.40625 0 "/></g></g></g><g fill="#f6faff" fill-opacity="1"><g transform="translate(34.401535, 5.352308)"><g><path d="M 2.234375 0 L 1.875 -0.921875 L 0.703125 -0.921875 L 0.34375 0 L 0 0 L 1.140625 -2.9375 L 1.453125 -2.9375 L 2.578125 0 Z M 1.765625 -1.234375 L 1.421875 -2.15625 C 1.421875 -2.175781 1.410156 -2.210938 1.390625 -2.265625 C 1.367188 -2.316406 1.347656 -2.375 1.328125 -2.4375 C 1.316406 -2.5 1.304688 -2.546875 1.296875 -2.578125 C 1.273438 -2.523438 1.253906 -2.472656 1.234375 -2.421875 C 1.222656 -2.367188 1.207031 -2.316406 1.1875 -2.265625 C 1.175781 -2.222656 1.164062 -2.1875 1.15625 -2.15625 L 0.8125 -1.234375 Z M 1.765625 -1.234375 "/></g></g></g><g fill="#f6faff" fill-opacity="1"><g transform="translate(38.882113, 5.352308)"><g><path d="M 2.6875 0 L 2.296875 0 L 0.703125 -2.453125 L 0.6875 -2.453125 C 0.6875 -2.390625 0.6875 -2.316406 0.6875 -2.234375 C 0.695312 -2.148438 0.703125 -2.0625 0.703125 -1.96875 C 0.710938 -1.875 0.71875 -1.773438 0.71875 -1.671875 L 0.71875 0 L 0.40625 0 L 0.40625 -2.921875 L 0.796875 -2.921875 L 2.375 -0.46875 L 2.390625 -0.46875 C 2.390625 -0.519531 2.382812 -0.585938 2.375 -0.671875 C 2.375 -0.753906 2.367188 -0.84375 2.359375 -0.9375 C 2.359375 -1.039062 2.359375 -1.140625 2.359375 -1.234375 L 2.359375 -2.921875 L 2.6875 -2.921875 Z M 2.6875 0 "/></g></g></g><g fill="#f6faff" fill-opacity="1"><g transform="translate(43.855596, 5.352308)"><g><path d="M 2.71875 -1.484375 C 2.71875 -1.160156 2.65625 -0.882812 2.53125 -0.65625 C 2.414062 -0.4375 2.242188 -0.269531 2.015625 -0.15625 C 1.785156 -0.0507812 1.507812 0 1.1875 0 L 0.40625 0 L 0.40625 -2.921875 L 1.28125 -2.921875 C 1.582031 -2.921875 1.835938 -2.863281 2.046875 -2.75 C 2.265625 -2.644531 2.429688 -2.484375 2.546875 -2.265625 C 2.660156 -2.054688 2.71875 -1.796875 2.71875 -1.484375 Z M 2.359375 -1.484375 C 2.359375 -1.742188 2.3125 -1.957031 2.21875 -2.125 C 2.132812 -2.289062 2.007812 -2.414062 1.84375 -2.5 C 1.675781 -2.582031 1.472656 -2.625 1.234375 -2.625 L 0.734375 -2.625 L 0.734375 -0.296875 L 1.15625 -0.296875 C 1.550781 -0.296875 1.847656 -0.394531 2.046875 -0.59375 C 2.253906 -0.789062 2.359375 -1.085938 2.359375 -1.484375 Z M 2.359375 -1.484375 "/></g></g></g><g fill="#f6faff" fill-opacity="1"><g transform="translate(48.717327, 5.352308)"><g><path d="M 0.40625 0 L 0.40625 -2.921875 L 0.734375 -2.921875 L 0.734375 0 Z M 0.40625 0 "/></g></g></g><g fill="#f6faff" fill-opacity="1"><g transform="translate(51.755114, 5.352308)"><g><path d="M 2.6875 0 L 2.296875 0 L 0.703125 -2.453125 L 0.6875 -2.453125 C 0.6875 -2.390625 0.6875 -2.316406 0.6875 -2.234375 C 0.695312 -2.148438 0.703125 -2.0625 0.703125 -1.96875 C 0.710938 -1.875 0.71875 -1.773438 0.71875 -1.671875 L 0.71875 0 L 0.40625 0 L 0.40625 -2.921875 L 0.796875 -2.921875 L 2.375 -0.46875 L 2.390625 -0.46875 C 2.390625 -0.519531 2.382812 -0.585938 2.375 -0.671875 C 2.375 -0.753906 2.367188 -0.84375 2.359375 -0.9375 C 2.359375 -1.039062 2.359375 -1.140625 2.359375 -1.234375 L 2.359375 -2.921875 L 2.6875 -2.921875 Z M 2.6875 0 "/></g></g></g><g fill="#f6faff" fill-opacity="1"><g transform="translate(56.728596, 5.352308)"><g><path d="M 1.65625 -1.53125 L 2.671875 -1.53125 L 2.671875 -0.109375 C 2.515625 -0.0546875 2.351562 -0.0195312 2.1875 0 C 2.03125 0.03125 1.851562 0.046875 1.65625 0.046875 C 1.351562 0.046875 1.097656 -0.015625 0.890625 -0.140625 C 0.679688 -0.265625 0.519531 -0.4375 0.40625 -0.65625 C 0.300781 -0.882812 0.25 -1.15625 0.25 -1.46875 C 0.25 -1.769531 0.304688 -2.03125 0.421875 -2.25 C 0.546875 -2.476562 0.71875 -2.65625 0.9375 -2.78125 C 1.164062 -2.90625 1.441406 -2.96875 1.765625 -2.96875 C 1.921875 -2.96875 2.070312 -2.953125 2.21875 -2.921875 C 2.363281 -2.890625 2.5 -2.847656 2.625 -2.796875 L 2.5 -2.5 C 2.394531 -2.539062 2.273438 -2.578125 2.140625 -2.609375 C 2.015625 -2.648438 1.878906 -2.671875 1.734375 -2.671875 C 1.503906 -2.671875 1.300781 -2.617188 1.125 -2.515625 C 0.957031 -2.421875 0.828125 -2.28125 0.734375 -2.09375 C 0.648438 -1.914062 0.609375 -1.707031 0.609375 -1.46875 C 0.609375 -1.21875 0.644531 -1 0.71875 -0.8125 C 0.800781 -0.632812 0.925781 -0.492188 1.09375 -0.390625 C 1.257812 -0.296875 1.472656 -0.25 1.734375 -0.25 C 1.867188 -0.25 1.984375 -0.253906 2.078125 -0.265625 C 2.171875 -0.285156 2.253906 -0.304688 2.328125 -0.328125 L 2.328125 -1.234375 L 1.65625 -1.234375 Z M 1.65625 -1.53125 "/></g></g></g><g fill="#f6faff" fill-opacity="1"><g transform="translate(61.596314, 5.352308)"><g/></g></g><g fill="#f6faff" fill-opacity="1"><g transform="translate(64.554278, 5.352308)"><g><path d="M 1.15625 -2.921875 C 1.539062 -2.921875 1.816406 -2.847656 1.984375 -2.703125 C 2.160156 -2.554688 2.25 -2.34375 2.25 -2.0625 C 2.25 -1.945312 2.226562 -1.832031 2.1875 -1.71875 C 2.144531 -1.601562 2.078125 -1.503906 1.984375 -1.421875 C 1.898438 -1.335938 1.785156 -1.269531 1.640625 -1.21875 C 1.492188 -1.175781 1.3125 -1.15625 1.09375 -1.15625 L 0.734375 -1.15625 L 0.734375 0 L 0.40625 0 L 0.40625 -2.921875 Z M 1.125 -2.625 L 0.734375 -2.625 L 0.734375 -1.4375 L 1.0625 -1.4375 C 1.25 -1.4375 1.40625 -1.457031 1.53125 -1.5 C 1.65625 -1.539062 1.75 -1.601562 1.8125 -1.6875 C 1.875 -1.78125 1.90625 -1.90625 1.90625 -2.0625 C 1.90625 -2.25 1.84375 -2.390625 1.71875 -2.484375 C 1.59375 -2.578125 1.394531 -2.625 1.125 -2.625 Z M 1.125 -2.625 "/></g></g></g><g fill="#f6faff" fill-opacity="1"><g transform="translate(68.909136, 5.352308)"><g><path d="M 2.234375 0 L 1.875 -0.921875 L 0.703125 -0.921875 L 0.34375 0 L 0 0 L 1.140625 -2.9375 L 1.453125 -2.9375 L 2.578125 0 Z M 1.765625 -1.234375 L 1.421875 -2.15625 C 1.421875 -2.175781 1.410156 -2.210938 1.390625 -2.265625 C 1.367188 -2.316406 1.347656 -2.375 1.328125 -2.4375 C 1.316406 -2.5 1.304688 -2.546875 1.296875 -2.578125 C 1.273438 -2.523438 1.253906 -2.472656 1.234375 -2.421875 C 1.222656 -2.367188 1.207031 -2.316406 1.1875 -2.265625 C 1.175781 -2.222656 1.164062 -2.1875 1.15625 -2.15625 L 0.8125 -1.234375 Z M 1.765625 -1.234375 "/></g></g></g><g fill="#f6faff" fill-opacity="1"><g transform="translate(73.389715, 5.352308)"><g><path d="M 1.65625 -1.53125 L 2.671875 -1.53125 L 2.671875 -0.109375 C 2.515625 -0.0546875 2.351562 -0.0195312 2.1875 0 C 2.03125 0.03125 1.851562 0.046875 1.65625 0.046875 C 1.351562 0.046875 1.097656 -0.015625 0.890625 -0.140625 C 0.679688 -0.265625 0.519531 -0.4375 0.40625 -0.65625 C 0.300781 -0.882812 0.25 -1.15625 0.25 -1.46875 C 0.25 -1.769531 0.304688 -2.03125 0.421875 -2.25 C 0.546875 -2.476562 0.71875 -2.65625 0.9375 -2.78125 C 1.164062 -2.90625 1.441406 -2.96875 1.765625 -2.96875 C 1.921875 -2.96875 2.070312 -2.953125 2.21875 -2.921875 C 2.363281 -2.890625 2.5 -2.847656 2.625 -2.796875 L 2.5 -2.5 C 2.394531 -2.539062 2.273438 -2.578125 2.140625 -2.609375 C 2.015625 -2.648438 1.878906 -2.671875 1.734375 -2.671875 C 1.503906 -2.671875 1.300781 -2.617188 1.125 -2.515625 C 0.957031 -2.421875 0.828125 -2.28125 0.734375 -2.09375 C 0.648438 -1.914062 0.609375 -1.707031 0.609375 -1.46875 C 0.609375 -1.21875 0.644531 -1 0.71875 -0.8125 C 0.800781 -0.632812 0.925781 -0.492188 1.09375 -0.390625 C 1.257812 -0.296875 1.472656 -0.25 1.734375 -0.25 C 1.867188 -0.25 1.984375 -0.253906 2.078125 -0.265625 C 2.171875 -0.285156 2.253906 -0.304688 2.328125 -0.328125 L 2.328125 -1.234375 L 1.65625 -1.234375 Z M 1.65625 -1.53125 "/></g></g></g><g fill="#f6faff" fill-opacity="1"><g transform="translate(78.257432, 5.352308)"><g><path d="M 2.03125 0 L 0.40625 0 L 0.40625 -2.921875 L 2.03125 -2.921875 L 2.03125 -2.625 L 0.734375 -2.625 L 0.734375 -1.671875 L 1.953125 -1.671875 L 1.953125 -1.375 L 0.734375 -1.375 L 0.734375 -0.296875 L 2.03125 -0.296875 Z M 2.03125 0 "/></g></g></g><g fill="#f6faff" fill-opacity="1"><g transform="translate(82.424707, 5.352308)"><g><path d="M 2.046875 -0.78125 C 2.046875 -0.601562 2.003906 -0.453125 1.921875 -0.328125 C 1.835938 -0.210938 1.71875 -0.117188 1.5625 -0.046875 C 1.40625 0.015625 1.222656 0.046875 1.015625 0.046875 C 0.898438 0.046875 0.789062 0.0390625 0.6875 0.03125 C 0.59375 0.0195312 0.503906 0.00390625 0.421875 -0.015625 C 0.335938 -0.0351562 0.265625 -0.0625 0.203125 -0.09375 L 0.203125 -0.421875 C 0.304688 -0.378906 0.429688 -0.335938 0.578125 -0.296875 C 0.722656 -0.265625 0.875 -0.25 1.03125 -0.25 C 1.175781 -0.25 1.296875 -0.269531 1.390625 -0.3125 C 1.492188 -0.351562 1.570312 -0.410156 1.625 -0.484375 C 1.675781 -0.554688 1.703125 -0.644531 1.703125 -0.75 C 1.703125 -0.851562 1.679688 -0.9375 1.640625 -1 C 1.597656 -1.0625 1.523438 -1.117188 1.421875 -1.171875 C 1.316406 -1.234375 1.175781 -1.296875 1 -1.359375 C 0.882812 -1.398438 0.773438 -1.445312 0.671875 -1.5 C 0.578125 -1.550781 0.5 -1.609375 0.4375 -1.671875 C 0.375 -1.742188 0.328125 -1.820312 0.296875 -1.90625 C 0.265625 -2 0.25 -2.101562 0.25 -2.21875 C 0.25 -2.375 0.285156 -2.503906 0.359375 -2.609375 C 0.441406 -2.722656 0.550781 -2.8125 0.6875 -2.875 C 0.832031 -2.9375 1 -2.96875 1.1875 -2.96875 C 1.34375 -2.96875 1.484375 -2.953125 1.609375 -2.921875 C 1.742188 -2.890625 1.867188 -2.847656 1.984375 -2.796875 L 1.875 -2.515625 C 1.769531 -2.554688 1.65625 -2.59375 1.53125 -2.625 C 1.414062 -2.65625 1.296875 -2.671875 1.171875 -2.671875 C 1.046875 -2.671875 0.941406 -2.648438 0.859375 -2.609375 C 0.773438 -2.566406 0.707031 -2.515625 0.65625 -2.453125 C 0.613281 -2.390625 0.59375 -2.3125 0.59375 -2.21875 C 0.59375 -2.113281 0.613281 -2.023438 0.65625 -1.953125 C 0.695312 -1.890625 0.765625 -1.832031 0.859375 -1.78125 C 0.953125 -1.726562 1.082031 -1.671875 1.25 -1.609375 C 1.414062 -1.546875 1.554688 -1.476562 1.671875 -1.40625 C 1.796875 -1.34375 1.890625 -1.257812 1.953125 -1.15625 C 2.015625 -1.0625 2.046875 -0.9375 2.046875 -0.78125 Z M 2.046875 -0.78125 "/></g></g></g></g></g><g transform="matrix(1, 0, 0, 1, 24, 17)"><g clip-path="url(#c6edd484df)"><g clip-path="url(#77a3a7ef24)"><g fill="#f6faff" fill-opacity="1"><g transform="translate(0.314268, 9.324639)"><g><path d="M 6.25 0 L 4.234375 0 L 3.078125 -3.75 L 3.078125 0 L 0.578125 0 L 0.578125 -6.734375 L 4.125 -6.734375 L 5.234375 -3.078125 L 6.34375 -6.734375 L 9.890625 -6.734375 L 9.890625 0 L 7.40625 0 L 7.40625 -3.75 Z M 6.25 0 "/></g></g></g></g><g fill="#f6faff" fill-opacity="1"><g transform="translate(10.790019, 9.324639)"><g><path d="M 5.328125 -6.734375 C 5.328125 -6.722656 5.351562 -6.617188 5.40625 -6.421875 C 5.46875 -6.234375 5.546875 -5.976562 5.640625 -5.65625 C 5.734375 -5.332031 5.835938 -4.972656 5.953125 -4.578125 C 6.066406 -4.179688 6.1875 -3.769531 6.3125 -3.34375 C 6.4375 -2.914062 6.554688 -2.503906 6.671875 -2.109375 C 6.796875 -1.710938 6.90625 -1.351562 7 -1.03125 C 7.09375 -0.71875 7.164062 -0.46875 7.21875 -0.28125 C 7.269531 -0.09375 7.296875 0 7.296875 0 L 4.515625 0 L 4.328125 -0.96875 L 3.078125 -0.96875 L 2.890625 0 L 0.09375 0 L 2.0625 -6.734375 Z M 3.359375 -2.5 L 4.03125 -2.5 L 3.703125 -4.234375 Z M 3.359375 -2.5 "/></g></g></g><g fill="#f6faff" fill-opacity="1"><g transform="translate(18.190319, 9.324639)"><g><path d="M 7.203125 0 L 4.328125 0 L 3.171875 -2.203125 L 3.078125 -2.203125 L 3.078125 0 L 0.578125 0 L 0.578125 -6.734375 C 0.578125 -6.734375 0.648438 -6.734375 0.796875 -6.734375 C 0.953125 -6.742188 1.160156 -6.753906 1.421875 -6.765625 C 1.691406 -6.785156 1.992188 -6.800781 2.328125 -6.8125 C 2.660156 -6.820312 3.003906 -6.828125 3.359375 -6.828125 C 4.066406 -6.828125 4.644531 -6.726562 5.09375 -6.53125 C 5.550781 -6.332031 5.890625 -6.054688 6.109375 -5.703125 C 6.328125 -5.347656 6.4375 -4.9375 6.4375 -4.46875 C 6.4375 -4.125 6.390625 -3.832031 6.296875 -3.59375 C 6.210938 -3.351562 6.113281 -3.15625 6 -3 C 5.882812 -2.851562 5.785156 -2.75 5.703125 -2.6875 C 5.617188 -2.625 5.578125 -2.59375 5.578125 -2.59375 Z M 3.078125 -3.9375 L 3.359375 -3.9375 C 3.523438 -3.9375 3.660156 -3.988281 3.765625 -4.09375 C 3.878906 -4.195312 3.9375 -4.320312 3.9375 -4.46875 C 3.9375 -4.613281 3.878906 -4.738281 3.765625 -4.84375 C 3.660156 -4.945312 3.523438 -5 3.359375 -5 L 3.078125 -5 Z M 3.078125 -3.9375 "/></g></g></g><g fill="#f6faff" fill-opacity="1"><g transform="translate(25.206193, 9.324639)"><g><path d="M 3.078125 -6.734375 L 3.078125 0 L 0.578125 0 L 0.578125 -6.734375 Z M 3.078125 -6.734375 "/></g></g></g><g fill="#f6faff" fill-opacity="1"><g transform="translate(28.858289, 9.324639)"><g><path d="M 5.328125 -6.734375 C 5.328125 -6.722656 5.351562 -6.617188 5.40625 -6.421875 C 5.46875 -6.234375 5.546875 -5.976562 5.640625 -5.65625 C 5.734375 -5.332031 5.835938 -4.972656 5.953125 -4.578125 C 6.066406 -4.179688 6.1875 -3.769531 6.3125 -3.34375 C 6.4375 -2.914062 6.554688 -2.503906 6.671875 -2.109375 C 6.796875 -1.710938 6.90625 -1.351562 7 -1.03125 C 7.09375 -0.71875 7.164062 -0.46875 7.21875 -0.28125 C 7.269531 -0.09375 7.296875 0 7.296875 0 L 4.515625 0 L 4.328125 -0.96875 L 3.078125 -0.96875 L 2.890625 0 L 0.09375 0 L 2.0625 -6.734375 Z M 3.359375 -2.5 L 4.03125 -2.5 L 3.703125 -4.234375 Z M 3.359375 -2.5 "/></g></g></g><g fill="#f6faff" fill-opacity="1"><g transform="translate(36.25859, 9.324639)"><g><path d="M 4.703125 0 L 3.078125 -2.984375 L 3.078125 0 L 0.578125 0 L 0.578125 -6.734375 L 3.359375 -6.734375 L 5 -3.75 L 5 -6.734375 L 7.5 -6.734375 L 7.5 0 Z M 4.703125 0 "/></g></g></g><g fill="#f6faff" fill-opacity="1"><g transform="translate(44.331649, 9.324639)"><g><path d="M 5.1875 -3.359375 C 5.1875 -3.703125 5.082031 -3.976562 4.875 -4.1875 C 4.664062 -4.40625 4.414062 -4.515625 4.125 -4.515625 C 3.84375 -4.515625 3.597656 -4.40625 3.390625 -4.1875 C 3.179688 -3.976562 3.078125 -3.703125 3.078125 -3.359375 C 3.078125 -3.023438 3.179688 -2.75 3.390625 -2.53125 C 3.597656 -2.3125 3.84375 -2.203125 4.125 -2.203125 C 4.414062 -2.203125 4.664062 -2.3125 4.875 -2.53125 C 5.082031 -2.75 5.1875 -3.023438 5.1875 -3.359375 Z M 7.875 -3.359375 C 7.875 -2.867188 7.78125 -2.410156 7.59375 -1.984375 C 7.414062 -1.554688 7.160156 -1.179688 6.828125 -0.859375 C 6.492188 -0.546875 6.097656 -0.300781 5.640625 -0.125 C 5.179688 0.0507812 4.675781 0.140625 4.125 0.140625 C 3.582031 0.140625 3.082031 0.0507812 2.625 -0.125 C 2.164062 -0.300781 1.769531 -0.546875 1.4375 -0.859375 C 1.101562 -1.179688 0.84375 -1.554688 0.65625 -1.984375 C 0.476562 -2.410156 0.390625 -2.867188 0.390625 -3.359375 C 0.390625 -3.859375 0.476562 -4.316406 0.65625 -4.734375 C 0.84375 -5.160156 1.101562 -5.53125 1.4375 -5.84375 C 1.769531 -6.164062 2.164062 -6.414062 2.625 -6.59375 C 3.082031 -6.78125 3.582031 -6.875 4.125 -6.875 C 4.675781 -6.875 5.179688 -6.78125 5.640625 -6.59375 C 6.097656 -6.414062 6.492188 -6.164062 6.828125 -5.84375 C 7.160156 -5.53125 7.414062 -5.160156 7.59375 -4.734375 C 7.78125 -4.316406 7.875 -3.859375 7.875 -3.359375 Z M 7.875 -3.359375 "/></g></g></g><g fill="#f6faff" fill-opacity="1"><g transform="translate(52.596922, 9.324639)"><g/></g></g><g fill="#f6faff" fill-opacity="1"><g transform="translate(54.51908, 9.324639)"><g><path d="M 2.640625 -1.828125 C 2.765625 -1.828125 2.859375 -1.859375 2.921875 -1.921875 C 2.992188 -1.984375 3.03125 -2.046875 3.03125 -2.109375 C 3.03125 -2.191406 2.96875 -2.265625 2.84375 -2.328125 C 2.71875 -2.390625 2.554688 -2.457031 2.359375 -2.53125 C 2.160156 -2.601562 1.953125 -2.691406 1.734375 -2.796875 C 1.515625 -2.898438 1.304688 -3.035156 1.109375 -3.203125 C 0.910156 -3.367188 0.75 -3.570312 0.625 -3.8125 C 0.5 -4.0625 0.4375 -4.359375 0.4375 -4.703125 C 0.4375 -5.078125 0.546875 -5.425781 0.765625 -5.75 C 0.992188 -6.082031 1.3125 -6.351562 1.71875 -6.5625 C 2.125 -6.769531 2.609375 -6.875 3.171875 -6.875 C 3.609375 -6.875 3.988281 -6.816406 4.3125 -6.703125 C 4.632812 -6.597656 4.898438 -6.472656 5.109375 -6.328125 C 5.328125 -6.191406 5.488281 -6.070312 5.59375 -5.96875 C 5.707031 -5.863281 5.765625 -5.8125 5.765625 -5.8125 L 4.859375 -4.375 C 4.859375 -4.375 4.796875 -4.414062 4.671875 -4.5 C 4.554688 -4.59375 4.40625 -4.679688 4.21875 -4.765625 C 4.03125 -4.859375 3.828125 -4.90625 3.609375 -4.90625 C 3.484375 -4.90625 3.382812 -4.875 3.3125 -4.8125 C 3.25 -4.75 3.21875 -4.679688 3.21875 -4.609375 C 3.21875 -4.535156 3.28125 -4.46875 3.40625 -4.40625 C 3.53125 -4.34375 3.691406 -4.269531 3.890625 -4.1875 C 4.085938 -4.113281 4.296875 -4.023438 4.515625 -3.921875 C 4.742188 -3.816406 4.953125 -3.679688 5.140625 -3.515625 C 5.335938 -3.359375 5.5 -3.15625 5.625 -2.90625 C 5.75 -2.664062 5.8125 -2.367188 5.8125 -2.015625 C 5.8125 -1.648438 5.695312 -1.300781 5.46875 -0.96875 C 5.25 -0.644531 4.9375 -0.378906 4.53125 -0.171875 C 4.125 0.0351562 3.640625 0.140625 3.078125 0.140625 C 2.546875 0.140625 2.09375 0.0820312 1.71875 -0.03125 C 1.34375 -0.144531 1.035156 -0.273438 0.796875 -0.421875 C 0.554688 -0.578125 0.378906 -0.710938 0.265625 -0.828125 C 0.148438 -0.953125 0.09375 -1.015625 0.09375 -1.015625 L 1.015625 -2.453125 C 1.015625 -2.453125 1.050781 -2.421875 1.125 -2.359375 C 1.207031 -2.296875 1.320312 -2.222656 1.46875 -2.140625 C 1.613281 -2.054688 1.785156 -1.984375 1.984375 -1.921875 C 2.179688 -1.859375 2.398438 -1.828125 2.640625 -1.828125 Z M 2.640625 -1.828125 "/></g></g></g><g fill="#f6faff" fill-opacity="1"><g transform="translate(60.525819, 9.324639)"><g><path d="M 3.078125 -6.734375 L 3.078125 0 L 0.578125 0 L 0.578125 -6.734375 Z M 3.078125 -6.734375 "/></g></g></g><g fill="#f6faff" fill-opacity="1"><g transform="translate(64.177916, 9.324639)"><g><path d="M 3.078125 -6.734375 L 3.078125 -2.203125 L 5.671875 -2.203125 L 5.671875 0 L 0.578125 0 L 0.578125 -6.734375 Z M 3.078125 -6.734375 "/></g></g></g><g fill="#f6faff" fill-opacity="1"><g transform="translate(70.040491, 9.324639)"><g><path d="M 0.09375 -6.734375 L 2.890625 -6.734375 L 3.609375 -2.78125 L 4.328125 -6.734375 L 7.109375 -6.734375 L 5.234375 0 L 1.96875 0 Z M 0.09375 -6.734375 "/></g></g></g><g fill="#f6faff" fill-opacity="1"><g transform="translate(77.248578, 9.324639)"><g><path d="M 5.328125 -6.734375 C 5.328125 -6.722656 5.351562 -6.617188 5.40625 -6.421875 C 5.46875 -6.234375 5.546875 -5.976562 5.640625 -5.65625 C 5.734375 -5.332031 5.835938 -4.972656 5.953125 -4.578125 C 6.066406 -4.179688 6.1875 -3.769531 6.3125 -3.34375 C 6.4375 -2.914062 6.554688 -2.503906 6.671875 -2.109375 C 6.796875 -1.710938 6.90625 -1.351562 7 -1.03125 C 7.09375 -0.71875 7.164062 -0.46875 7.21875 -0.28125 C 7.269531 -0.09375 7.296875 0 7.296875 0 L 4.515625 0 L 4.328125 -0.96875 L 3.078125 -0.96875 L 2.890625 0 L 0.09375 0 L 2.0625 -6.734375 Z M 3.359375 -2.5 L 4.03125 -2.5 L 3.703125 -4.234375 Z M 3.359375 -2.5 "/></g></g></g></g></g></svg>