<svg xmlns="http://www.w3.org/2000/svg" xmlns:xlink="http://www.w3.org/1999/xlink" width="150" zoomAndPan="magnify" viewBox="0 0 112.5 37.5" height="50" preserveAspectRatio="xMidYMid meet" version="1.0"><defs><clipPath id="dd62cfce80"><path d="M 9.550781 3.394531 L 35.457031 3.394531 L 35.457031 33.742188 L 9.550781 33.742188 Z M 9.550781 3.394531 " clip-rule="nonzero"/></clipPath><clipPath id="295adec8d9"><path d="M 37.636719 3.394531 L 70.941406 3.394531 L 70.941406 33.742188 L 37.636719 33.742188 Z M 37.636719 3.394531 " clip-rule="nonzero"/></clipPath><clipPath id="9ce6fc438e"><path d="M 0.902344 0.394531 L 33.941406 0.394531 L 33.941406 30.632812 L 0.902344 30.632812 Z M 0.902344 0.394531 " clip-rule="nonzero"/></clipPath><clipPath id="166aa1248d"><rect x="0" width="34" y="0" height="31"/></clipPath><clipPath id="20adc02a61"><path d="M 73.472656 3.394531 L 102.339844 3.394531 L 102.339844 33.742188 L 73.472656 33.742188 Z M 73.472656 3.394531 " clip-rule="nonzero"/></clipPath><clipPath id="c4c8ed5afa"><path d="M 92.699219 5.882812 L 102.453125 5.882812 L 102.453125 9.585938 L 92.699219 9.585938 Z M 92.699219 5.882812 " clip-rule="nonzero"/></clipPath><clipPath id="d8aabe687a"><path d="M 0.699219 0.882812 L 10.453125 0.882812 L 10.453125 4.585938 L 0.699219 4.585938 Z M 0.699219 0.882812 " clip-rule="nonzero"/></clipPath><clipPath id="bea138b881"><rect x="0" width="11" y="0" height="5"/></clipPath></defs><g clip-path="url(#dd62cfce80)"><path fill="#ffffff" d="M 9.5625 33.601562 L 23.9375 33.601562 C 30.746094 33.601562 35.214844 30.847656 35.214844 25.332031 L 35.214844 25.246094 C 35.214844 21.195312 33.085938 19.144531 29.574219 17.808594 C 31.746094 16.597656 33.542969 14.71875 33.542969 11.292969 L 33.542969 11.207031 C 33.542969 9.121094 32.875 7.449219 31.496094 6.070312 C 29.742188 4.355469 27.027344 3.394531 23.597656 3.394531 L 9.5625 3.394531 L 9.5625 9.246094 L 22.597656 9.246094 C 25.394531 9.246094 26.941406 10.332031 26.941406 12.335938 L 26.941406 12.417969 C 26.941406 14.675781 25.101562 15.59375 22.132812 15.59375 L 9.5625 15.59375 Z M 16.039062 27.796875 L 16.039062 21.152344 L 23.726562 21.152344 C 27.109375 21.152344 28.613281 22.40625 28.613281 24.410156 L 28.613281 24.496094 C 28.613281 26.75 26.859375 27.792969 23.933594 27.792969 L 16.039062 27.792969 Z M 16.039062 27.796875 " fill-opacity="1" fill-rule="evenodd"/></g><g clip-path="url(#295adec8d9)"><g transform="matrix(1, 0, 0, 1, 37, 3)"><g clip-path="url(#166aa1248d)"><g clip-path="url(#9ce6fc438e)"><path fill="#ffffff" d="M 0.644531 30.601562 L 0.648438 0.394531 L 8.277344 0.394531 L 17.136719 19.917969 L 26 0.394531 L 34.195312 0.394531 L 20.589844 30.59375 L 13.703125 30.589844 L 8.390625 19.277344 L 8.390625 30.601562 Z M 34.195312 30.601562 L 26.449219 30.601562 L 26.449219 21.28125 L 34.195312 21.261719 Z M 34.195312 30.601562 " fill-opacity="1" fill-rule="nonzero"/></g></g></g></g><g clip-path="url(#20adc02a61)"><path fill="#ffffff" d="M 77.246094 33.589844 L 73.472656 27.554688 L 95.179688 27.554688 C 95.734375 27.554688 96.183594 27.101562 96.183594 26.550781 L 96.183594 22.539062 C 96.183594 21.984375 95.734375 21.53125 95.179688 21.53125 L 80.78125 21.53125 C 77.449219 21.53125 74.546875 19.164062 73.882812 15.898438 L 73.800781 15.496094 L 95.179688 15.5 C 99.058594 15.5 102.21875 18.65625 102.21875 22.539062 L 102.21875 26.550781 C 102.21875 30.429688 99.058594 33.589844 95.179688 33.589844 Z M 73.804688 9.445312 L 73.886719 9.042969 C 74.550781 5.777344 77.449219 3.410156 80.78125 3.410156 L 98.683594 3.410156 L 102.453125 9.445312 Z M 73.804688 9.445312 " fill-opacity="1" fill-rule="nonzero"/></g><g clip-path="url(#c4c8ed5afa)"><g transform="matrix(1, 0, 0, 1, 92, 5)"><g clip-path="url(#bea138b881)"><g clip-path="url(#d8aabe687a)"><path fill="#e2c27a" d="M 0.699219 0.882812 L 10.457031 0.882812 L 10.457031 4.585938 L 0.699219 4.585938 Z M 0.699219 0.882812 " fill-opacity="1" fill-rule="nonzero"/></g></g></g></g></svg>